<svg height="511pt" viewBox="-2 0 511 511.9991" width="511pt" xmlns="http://www.w3.org/2000/svg"><path d="m501.417969 20.582031c-.234375-7.855469-6.542969-14.167969-14.394531-14.40625l-202.539063-6.1679685c-4.132813-.1171875-8.109375 1.4648435-11.011719 4.3984375l-249.996094 252.570312c-30.636718 30.953126-30.636718 81.3125 0 112.265626l118.214844 119.429687c14.886719 15.042969 34.695313 23.328125 55.769532 23.328125 21.078124 0 40.886718-8.285156 55.773437-23.328125l250-252.574219c2.859375-2.890625 4.410156-6.828125 4.289063-10.894531zm-192.25 313.886719c-2.902344 2.898438-6.703125 4.351562-10.507813 4.351562-3.800781 0-7.601562-1.449218-10.503906-4.351562l-6.460938-6.464844-10.695312 10.695313c-2.902344 2.898437-6.703125 4.347656-10.503906 4.347656-3.804688 0-7.605469-1.449219-10.503906-4.351563-5.804688-5.800781-5.804688-15.207031 0-21.007812l28.445312-28.445312c5.324219-5.324219 5.320312-13.988282-.003906-19.3125-5.328125-5.328126-13.988282-5.332032-19.3125-.007813l-7.246094 7.242187c0 .003907 0 .003907-.003906.003907l-7.246094 7.25c-8.453125 8.453125-19.558594 12.679687-30.660156 12.679687-11.109375 0-22.214844-4.226562-30.671875-12.6875-8.191407-8.191406-12.703125-19.078125-12.707031-30.664062 0-10.035156 3.386718-19.546875 9.617187-27.234375l-6.636719-6.640625c-5.800781-5.800782-5.800781-15.207032 0-21.007813 5.800782-5.800781 15.207032-5.800781 21.007813 0l6.464843 6.464844 6.773438-6.777344c5.800781-5.800781 15.207031-5.800781 21.011719 0 5.800781 5.804688 5.800781 15.210938 0 21.011719l-24.53125 24.527344c-2.578125 2.578125-3.996094 6.003906-3.996094 9.652344 0 3.648437 1.421875 7.078124 4.003906 9.660156 5.328125 5.328125 13.992188 5.328125 19.3125.007812l7.25-7.25s0-.003906.003907-.003906l7.242187-7.246094c16.910156-16.90625 44.421875-16.902344 61.332031.007813 15.8125 15.808593 16.839844 40.886719 3.089844 57.898437l6.636719 6.640625c5.800781 5.804688 5.800781 15.210938 0 21.011719zm105.101562-177.046875c-8.6875 8.6875-20.101562 13.03125-31.511719 13.03125-11.414062 0-22.828124-4.34375-31.515624-13.03125-8.417969-8.417969-13.054688-19.609375-13.054688-31.515625 0-11.902344 4.636719-23.09375 13.054688-31.511719 17.375-17.375 45.652343-17.378906 63.027343 0 17.378907 17.375 17.378907 45.652344 0 63.027344zm0 0"/></svg>