<svg id="Capa_1" enable-background="new 0 0 511.998 511.998" height="512" viewBox="0 0 511.998 511.998" width="512" xmlns="http://www.w3.org/2000/svg"><g><path d="m308.776 0h-308.749l5.511 83.24h297.975z"/><path d="m119.241 388.729c-12.441-54.976-4.138-110.817 22.782-153.206 20.83-32.8 51.713-55.137 86.961-62.895 9.249-2.035 18.717-3.067 28.143-3.067 9.627 0 19.332 1.081 28.96 3.203v-18.839c0-14.198 2.328-27.852 6.618-40.603h-285.175l26.399 398.675h163.526c-3.173-2.295-6.304-4.713-9.384-7.27-33.807-28.059-58.251-69.254-68.83-115.998z"/><path d="m419.321 200.95c-5.366-1.181-10.773-1.921-16.205-2.227-20.727 14.642-46.022 23.247-73.329 23.247h-43.7v-19.32c-17.052-4.798-34.159-5.377-50.869-1.7-27.651 6.086-52.055 23.885-68.715 50.12-22.81 35.918-29.727 83.76-18.978 131.258 9.176 40.543 30.153 76.087 59.067 100.085 29.981 24.883 64.891 34.535 98.304 27.182 7.729-1.701 15.224-4.303 22.373-7.762 7.15 3.459 14.646 6.061 22.375 7.762 7.308 1.608 14.683 2.403 22.068 2.403 26.376 0 52.813-10.146 76.234-29.585 28.914-23.998 49.891-59.542 59.067-100.085 10.75-47.497 3.833-95.338-18.977-131.257-16.659-26.235-41.063-44.035-68.715-50.121z"/><path d="m318.046 188.997h8.782c54.257 0 98.241-43.984 98.241-98.241v-31.097h-8.782c-54.257 0-98.241 43.984-98.241 98.241z"/></g></svg>