<svg id="bold" enable-background="new 0 0 24 24" height="512" viewBox="0 0 24 24" width="512" xmlns="http://www.w3.org/2000/svg"><path d="m12 0c-6.617 0-12 5.383-12 12s5.383 12 12 12 12-5.383 12-12-5.383-12-12-12zm-8.674 16.956c.795-.099 1.537-.44 2.124-1.015 1.635-1.634.589-2.76 1.592-3.996.25-.295.681-.673 1.326-.801 2.174-.469 3.691-2.345 3.691-4.563 0-1.172.136-2.758-1.088-4.527 1.318-.135 2.624-.01 3.893.37-.258 1.785.091 3.626 1.033 5.206 1.599 2.639 4.182 2.086 5.778 1.894.181.706.288 1.44.309 2.197-2.728-.785-2.668 2.443-4.795 1.604-5.785-2.334-9.862 3.824-5.948 8.637-3.388-.256-6.308-2.205-7.915-5.006z"/></svg>